<?xml version="1.0" encoding="UTF-8"?>
<!-- Generated by Pixelmator Pro 3.7 -->
<svg width="320" height="192" viewBox="0 0 320 192" xmlns="http://www.w3.org/2000/svg">
    <path id="QATSI" fill="#c00001" fill-rule="evenodd" stroke="none" d="M 296 176 L 296 0 L 320 0 L 320 176 Z M 232 176 L 216 160 L 216 120 L 240 120 L 240 152 L 256 152 L 256 96 L 232 96 L 216 80 L 216 16 L 232 0 L 264 0 L 280 16 L 280 48 L 256 48 L 256 24 L 240 24 L 240 72 L 264 72 L 280 88 L 280 160 L 264 176 Z M 168 176 L 168 24 L 152 24 L 152 0 L 208 0 L 208 24 L 192 24 L 192 176 Z M 120 104 L 120 24 L 104 24 L 104 104 Z M 80 176 L 80 16 L 96 0 L 128 0 L 144 16 L 144 176 L 120 176 L 120 120 L 104 120 L 104 176 Z M 40 152 L 40 24 L 24 24 L 24 152 Z M 64 192 L 48 176 L 16 176 L 0 160 L 0 16 L 16 0 L 48 0 L 64 16 L 64 152 L 68 152 L 68 192 Z"/>
</svg>
